<svg xmlns="http://www.w3.org/2000/svg" viewBox="0 0 180 145" fill="none" stroke="#1A1410" stroke-linecap="round" stroke-linejoin="round">

  <!-- Moon crescent arc (large, ~3/4 circle, opening at upper-right) -->
  <path d="M 148,38 A 76,76 0 1,0 152,122" stroke-width="1.6"/>

  <!-- Woman head / hair bun -->
  <path d="M 74,36 C 71,26 79,16 89,18 C 99,20 105,29 103,39" stroke-width="1.5"/>
  <path d="M 89,18 C 95,12 108,15 110,23 C 106,29 98,28 92,25" stroke-width="1.4"/>

  <!-- Face profile: forehead → nose → lips → chin -->
  <path d="M 74,36 C 71,44 68,54 66,62 C 65,68 67,73 65,78 C 64,82 61,85 60,88" stroke-width="1.5"/>
  <path d="M 60,88 C 64,95 72,94 76,88" stroke-width="1.5"/>

  <!-- Eye line -->
  <path d="M 69,50 C 71,48 75,48 77,50" stroke-width="1.2"/>

  <!-- Nose tip -->
  <path d="M 65,70 C 63,72 64,76 67,76" stroke-width="1.2"/>

  <!-- Lips -->
  <path d="M 62,83 C 64,81 68,81 70,83 C 68,86 64,86 62,83" stroke-width="1.2"/>

  <!-- Ear hint -->
  <path d="M 97,50 C 101,48 103,52 101,57 C 99,61 96,59 97,50" stroke-width="1.2"/>

  <!-- Hair from bun to ear area -->
  <path d="M 103,39 C 105,48 104,58 100,64" stroke-width="1.4"/>

  <!-- Neck -->
  <path d="M 64,88 C 62,97 58,108 52,118" stroke-width="1.4"/>
  <path d="M 76,89 C 80,98 85,108 93,115" stroke-width="1.4"/>

  <!-- Shoulder line -->
  <path d="M 34,134 C 44,122 56,118 70,118" stroke-width="1.4"/>

  <!-- Floral: tulip bloom (upper right, inside arc opening) -->
  <path d="M 122,34 C 120,24 125,15 129,15 C 134,15 138,24 136,34 C 134,42 129,46 127,50 Z" stroke-width="1.5"/>

  <!-- Second smaller bud -->
  <path d="M 140,26 C 138,18 142,11 145,11 C 149,11 152,18 150,26 L 145,32 Z" stroke-width="1.4"/>

  <!-- Connecting stem from buds -->
  <path d="M 127,50 C 128,62 127,76 124,90" stroke-width="1.4"/>
  <path d="M 145,32 C 143,38 138,44 134,48" stroke-width="1.3"/>

  <!-- Leaf 1 — left of stem -->
  <path d="M 128,60 C 118,52 110,56 109,66 C 116,64 124,62 128,60" stroke-width="1.3"/>
  <path d="M 128,60 C 120,66 112,74 109,66" stroke-width="1.2"/>

  <!-- Leaf 2 — right of stem -->
  <path d="M 126,75 C 136,68 146,72 144,84 C 136,80 128,77 126,75" stroke-width="1.3"/>
  <path d="M 126,75 C 133,83 136,94 132,104" stroke-width="1.2"/>

  <!-- Large leaf bottom right -->
  <path d="M 124,90 C 135,84 149,92 144,110 C 135,104 125,99 124,90" stroke-width="1.3"/>
  <path d="M 124,90 C 130,102 132,116 125,128" stroke-width="1.2"/>

  <!-- Small top-right leaf near bud -->
  <path d="M 148,22 C 154,16 161,20 158,30" stroke-width="1.2"/>
  <path d="M 136,42 C 142,36 150,40 147,52" stroke-width="1.2"/>

  <!-- Signature text in calligraphic italic -->
  <text x="8" y="164" font-family="'Palatino Linotype', Palatino, 'Book Antiqua', Georgia, serif" font-style="italic" font-size="26" fill="#1A1410" stroke="none" letter-spacing="0.5">Angelina</text>
  <text x="4" y="194" font-family="'Palatino Linotype', Palatino, 'Book Antiqua', Georgia, serif" font-style="italic" font-size="26" fill="#1A1410" stroke="none" letter-spacing="0.5">Androsova</text>
</svg>
